{
  "accessors": [
    {
      "bufferView": 0,
      "componentType": 5126,
      "count": 94889,
      "type": "VEC3",
      "max": [
        2.2037184238433838,
        0.76146024465560913,
        3.0520617961883545
      ],
      "min": [
        -2.2037184238433838,
        -0.76146024465560913,
        -3.0520620346069336
      ]
    },
    {
      "bufferView": 1,
      "componentType": 5126,
      "count": 94889,
      "type": "VEC3",
      "max": [
        1.0,
        1.0,
        1.0
      ],
      "min": [
        -1.0,
        -1.0,
        -1.0
      ]
    },
    {
      "bufferView": 2,
      "componentType": 5126,
      "count": 94889,
      "type": "VEC4",
      "max": [
        1.0,
        1.0,
        1.0,
        1.0
      ],
      "min": [
        -1.0,
        -1.0,
        -1.0,
        -1.0
      ]
    },
    {
      "bufferView": 3,
      "componentType": 5126,
      "count": 94889,
      "type": "VEC2",
      "max": [
        0.99894219636917114,
        0.99226564168930054
      ],
      "min": [
        0.0034169144928455353,
        0.0038445801474153996
      ]
    },
    {
      "bufferView": 4,
      "componentType": 5125,
      "count": 231879,
      "type": "SCALAR",
      "max": [
        71223.0
      ],
      "min": [
        0.0
      ]
    },
    {
      "bufferView": 5,
      "componentType": 5125,
      "count": 1428,
      "type": "SCALAR",
      "max": [
        71499.0
      ],
      "min": [
        71224.0
      ]
    },
    {
      "bufferView": 6,
      "componentType": 5125,
      "count": 51354,
      "type": "SCALAR",
      "max": [
        92411.0
      ],
      "min": [
        71500.0
      ]
    },
    {
      "bufferView": 7,
      "componentType": 5125,
      "count": 5319,
      "type": "SCALAR",
      "max": [
        94888.0
      ],
      "min": [
        92412.0
      ]
    }
  ],
  "asset": {
    "generator": "Plattar UnityGLTF (2020.2.0b5)",
    "version": "2.0"
  },
  "buffers": [
    {
      "uri": "Bahay_1 bed Apartment.bin",
      "byteLength": 5714592
    }
  ],
  "bufferViews": [
    {
      "buffer": 0,
      "byteLength": 1138668
    },
    {
      "buffer": 0,
      "byteOffset": 1138668,
      "byteLength": 1138668
    },
    {
      "buffer": 0,
      "byteOffset": 2277336,
      "byteLength": 1518224
    },
    {
      "buffer": 0,
      "byteOffset": 3795560,
      "byteLength": 759112
    },
    {
      "buffer": 0,
      "byteOffset": 4554672,
      "byteLength": 927516
    },
    {
      "buffer": 0,
      "byteOffset": 5482188,
      "byteLength": 5712
    },
    {
      "buffer": 0,
      "byteOffset": 5487900,
      "byteLength": 205416
    },
    {
      "buffer": 0,
      "byteOffset": 5693316,
      "byteLength": 21276
    }
  ],
  "images": [
    {
      "uri": "FunitureTextures.jpg",
      "name": "FunitureTextures"
    },
    {
      "uri": "190808_Bahay_FloorPlan.jpg",
      "name": "190808_Bahay_FloorPlan"
    },
    {
      "uri": "Wall.jpg",
      "name": "Wall"
    }
  ],
  "materials": [
    {
      "pbrMetallicRoughness": {
        "baseColorFactor": [
          0.9063317,
          0.9063317,
          0.9063317,
          1.0
        ],
        "baseColorTexture": {
          "index": 0
        },
        "metallicFactor": 0.0
      },
      "name": "furnitures"
    },
    {
      "pbrMetallicRoughness": {
        "baseColorFactor": [
          0.9063317,
          0.9063317,
          0.9063317,
          1.0
        ],
        "baseColorTexture": {
          "index": 1
        },
        "metallicFactor": 0.0
      },
      "alphaMode": "BLEND",
      "name": "Bottom"
    },
    {
      "pbrMetallicRoughness": {
        "baseColorFactor": [
          0.9063317,
          0.9063317,
          0.9063317,
          1.0
        ],
        "baseColorTexture": {
          "index": 2
        },
        "metallicFactor": 0.0
      },
      "name": "Wall"
    },
    {
      "pbrMetallicRoughness": {
        "baseColorFactor": [
          0.9063317,
          0.9063317,
          0.9063317,
          1.0
        ],
        "metallicFactor": 0.0
      },
      "name": "lambert1"
    }
  ],
  "meshes": [
    {
      "primitives": [
        {
          "attributes": {
            "POSITION": 0,
            "NORMAL": 1,
            "TANGENT": 2,
            "TEXCOORD_0": 3
          },
          "indices": 4,
          "material": 0
        },
        {
          "attributes": {
            "POSITION": 0,
            "NORMAL": 1,
            "TANGENT": 2,
            "TEXCOORD_0": 3
          },
          "indices": 5,
          "material": 1
        },
        {
          "attributes": {
            "POSITION": 0,
            "NORMAL": 1,
            "TANGENT": 2,
            "TEXCOORD_0": 3
          },
          "indices": 6,
          "material": 2
        },
        {
          "attributes": {
            "POSITION": 0,
            "NORMAL": 1,
            "TANGENT": 2,
            "TEXCOORD_0": 3
          },
          "indices": 7,
          "material": 3
        }
      ],
      "name": "Bahay_1 bed Apartment"
    }
  ],
  "nodes": [
    {
      "mesh": 0,
      "rotation": [
        0.0,
        0.0,
        0.0,
        -1.0
      ],
      "name": "Bahay_1 bed Apartment"
    }
  ],
  "samplers": [
    {
      "minFilter": 9729
    }
  ],
  "scene": 0,
  "scenes": [
    {
      "nodes": [
        0
      ],
      "name": "Bahay_1 bed Apartment"
    }
  ],
  "textures": [
    {
      "sampler": 0,
      "source": 0,
      "name": "FunitureTextures"
    },
    {
      "sampler": 0,
      "source": 1,
      "name": "190808_Bahay_FloorPlan"
    },
    {
      "sampler": 0,
      "source": 2,
      "name": "Wall"
    }
  ]
}